<?xml version="1.0" encoding="utf-8"?><svg xmlns="http://www.w3.org/2000/svg" xmlns:xlink="http://www.w3.org/1999/xlink"><symbol viewBox="0 0 20 20" id="ac_minus" xmlns="http://www.w3.org/2000/svg"><path d="M.707 10.712A.71.71 0 010 9.995c0-.394.313-.707.707-.707h18.576c.394 0 .717.313.717.707a.72.72 0 01-.717.717H.707z"/></symbol><symbol viewBox="0 0 20 20" id="ac_plus" xmlns="http://www.w3.org/2000/svg"><path d="M19.219 9.219H10.78V.78a.781.781 0 10-1.562 0v8.44H.78a.781.781 0 100 1.562h8.44v8.438a.781.781 0 001.562 0v-8.44h8.438a.781.781 0 100-1.562z"/></symbol><symbol viewBox="0 0 9 16" id="carousel_arrow" xmlns="http://www.w3.org/2000/svg"><path d="M.293 7.293a1 1 0 000 1.414l6.364 6.364a1 1 0 001.414-1.414L2.414 8l5.657-5.657A1 1 0 006.657.93L.293 7.293zM1.5 7H1v2h.5V7z"/></symbol><symbol viewBox="0 0 19 19" id="facebook" xmlns="http://www.w3.org/2000/svg"><path d="M14.25.004L11.785 0C9.017 0 7.229 1.835 7.229 4.676v2.156H4.75a.387.387 0 00-.387.387v3.124c0 .214.173.388.387.388h2.48v7.882c0 .214.173.387.387.387h3.232a.387.387 0 00.388-.387V10.73h2.896a.387.387 0 00.388-.388V7.22a.388.388 0 00-.387-.387h-2.897V5.004c0-.878.209-1.324 1.353-1.324h1.66a.387.387 0 00.387-.388v-2.9a.388.388 0 00-.387-.388z"/><defs><clipPath id="dclip0"><path d="M0 0h19v19H0z"/></clipPath></defs></symbol><symbol viewBox="0 0 17 17" id="inst" xmlns="http://www.w3.org/2000/svg"><path d="M11.688 0H5.313A5.313 5.313 0 000 5.313v6.375A5.313 5.313 0 005.313 17h6.375A5.313 5.313 0 0017 11.687V5.314A5.313 5.313 0 0011.688 0zm3.718 11.688a3.723 3.723 0 01-3.718 3.718H5.313a3.723 3.723 0 01-3.72-3.719V5.314a3.723 3.723 0 013.72-3.72h6.375a3.723 3.723 0 013.718 3.72v6.375z"/><path d="M8.5 4.25a4.25 4.25 0 100 8.5 4.25 4.25 0 000-8.5zm0 6.906A2.66 2.66 0 015.844 8.5 2.66 2.66 0 018.5 5.844 2.66 2.66 0 0111.156 8.5 2.66 2.66 0 018.5 11.156zm4.57-6.658a.566.566 0 100-1.133.566.566 0 000 1.133z"/><defs><clipPath id="eclip0"><path d="M0 0h17v17H0z"/></clipPath></defs></symbol><symbol viewBox="0 0 122 52" id="logo" xmlns="http://www.w3.org/2000/svg"><path d="M26.93.035C26.682 0 26.398 0 26.15 0 11.73 0 0 11.67 0 26.018S11.729 52 26.15 52C40.573 52 52.3 40.33 52.3 26.018 52.267 11.916 40.963.458 26.93.035zm-.78 50.555c-13.642 0-24.733-11.035-24.733-24.572C1.417 12.445 12.508 1.41 26.15 1.41c13.643 0 24.733 11.035 24.733 24.608 0 13.537-11.126 24.572-24.733 24.572z"/><path d="M26.15 2.327c-13.111 0-23.812 10.611-23.812 23.69 0 13.045 10.666 23.692 23.812 23.692 13.11 0 23.812-10.612 23.812-23.691C49.925 12.938 39.26 2.327 26.15 2.327zm-7.725 9.307c0-4.23 3.473-7.686 7.725-7.686 5.74 0 10.382 4.69 10.382 10.471 0 .458-.035.881-.106 1.34-.78 5.393-8.894 4.724-8.894-.74a1.36 1.36 0 00-1.382-1.376c-.78 0-1.382.6-1.382 1.375v9.59h-6.343V11.634zM3.968 26.018c0-1.058.07-2.08.212-3.103 1.914 2.186 4.465 3.667 7.335 4.195l-6.023 6.84a21.22 21.22 0 01-1.524-7.932zm9 17.697a23.124 23.124 0 01-4.5-4.407 3.762 3.762 0 01.177-4.794l4.323-4.9v14.101zm0-19.143a9.95 9.95 0 01-4.146-1.375c-2.693-1.586-3.614-5.076-2.126-7.79a22.18 22.18 0 016.272-7.158v16.323zm13.182 23.48h-.071c-4.252 0-7.619-3.526-7.619-7.756V27.392h6.414c.709 6.523 6.307 11.705 13.075 11.705h5.989c-4.04 5.43-10.489 8.954-17.788 8.954zm11.764-11.705c-5.28 0-9.638-3.984-10.276-9.06 6.52-.74 11.587-6.205 11.658-12.868a13.1 13.1 0 00-2.516-7.756 22.355 22.355 0 018.114 7.615h-2.799a4.955 4.955 0 001.984 3.35 10.44 10.44 0 014.182 6.909c.035.494.035.952.035 1.445v.212c-.07 5.64-4.748 10.153-10.382 10.153zm37.171-2.827c0 .424.142.776.425 1.023.284.247.71.388 1.311.388h.745v.247h-7.69v-.247h.745c1.169 0 1.736-.494 1.736-1.48v-6.593h-2.445c-.709.176-1.17.634-1.453 1.34-.248.74-.425 1.656-.532 2.784-.035.846-.141 1.552-.283 2.08-.142.565-.354.988-.602 1.305-.248.317-.567.564-.922.67-.354.14-.78.211-1.24.211-.496 0-.886-.106-1.205-.317a1.518 1.518 0 01-.637-.846c-.142-.353-.178-.74-.142-1.199.035-.458.142-.917.319-1.41a.574.574 0 01.319-.106c.106 0 .212.07.283.141a3.53 3.53 0 00-.567 1.164 2.447 2.447 0 00-.07.987c.035.282.141.529.283.705a.74.74 0 00.567.282c.283 0 .46-.106.567-.282.106-.176.177-.423.212-.776.036-.317.036-.74.036-1.198 0-.459.035-.988.106-1.552.036-.493.142-.987.319-1.445a4.07 4.07 0 01.638-1.305c.248-.387.567-.74.957-.987.354-.282.815-.458 1.31-.528v-.07c-.495-.036-.956-.177-1.417-.353a5.632 5.632 0 01-1.24-.776 3.78 3.78 0 01-.886-1.199c-.213-.493-.319-1.022-.319-1.657 0-1.586.496-2.785 1.524-3.56 1.028-.776 2.657-1.164 4.925-1.164.709 0 1.418.036 2.162.07.744.036 1.382.071 1.878.071h2.764v.247h-.745c-1.169 0-1.736.494-1.736 1.48v13.856zm-2.728-15.23c-.638-.175-1.205-.281-1.63-.281-.992 0-1.737.14-2.197.458-.496.317-.815.67-.992 1.128a3.507 3.507 0 00-.213 1.516c.035.564.036 1.058.036 1.551 0 .564.035 1.093.07 1.587.036.493.178.881.39 1.234.213.352.532.599.957.81.425.212 1.027.283 1.772.283.354 0 .708-.036.992-.07.319-.036.567-.142.815-.318V18.29zm9.638 1.34c0-.987-.567-1.48-1.736-1.48h-.745v-.247h2.764c.532 0 1.17-.035 1.878-.07.744-.036 1.453-.071 2.162-.071 1.24 0 2.303.106 3.189.317.85.212 1.559.53 2.055.952.532.423.886.952 1.099 1.551.212.635.319 1.34.319 2.116 0 1.692-.568 3.067-1.701 4.054-1.134.987-2.8 1.516-4.961 1.516-.248 0-.496 0-.815-.035a5.39 5.39 0 01-.815-.071v5.218c0 .987.567 1.48 1.736 1.48h.744v.247H79.48v-.247h.744c.603 0 1.063-.14 1.311-.387.284-.247.425-.6.425-1.023V19.63h.036zm2.728 7.933c.177.176.496.282.886.388.425.105.815.14 1.17.14.779 0 1.381-.14 1.807-.387.425-.247.744-.635.956-1.093.213-.458.32-1.023.355-1.622.035-.634.07-1.304.07-2.045v-1.586c0-.564-.106-1.093-.318-1.587-.213-.493-.567-.88-1.063-1.233-.496-.318-1.24-.494-2.197-.494-.248 0-.496 0-.744.035-.284 0-.567.07-.886.141v9.343h-.036zm17.399 4.689l-6.13-12.128c-.178-.352-.355-.634-.461-.916a2.969 2.969 0 00-.425-.6 1.402 1.402 0 00-.532-.352 2.447 2.447 0 00-.78-.106h-.283v-.247h7.689v.247h-.744c-.602 0-1.063.176-1.346.529-.284.352-.284.81.035 1.41l4.11 8.39h.107l2.338-7.685c.248-.81.248-1.445.036-1.94-.213-.493-.638-.704-1.24-.704h-.745v-.247h5.068v.247h-.248c-.603 0-1.134.282-1.595.881-.461.6-.85 1.41-1.169 2.433l-3.402 10.788c-.213.67-.425 1.198-.673 1.586-.248.423-.496.74-.78.952a1.81 1.81 0 01-.779.458c-.248.07-.461.141-.638.141-.248 0-.496-.035-.78-.14-.248-.107-.496-.212-.708-.424a2.03 2.03 0 01-.532-.67c-.142-.247-.213-.564-.213-.916 0-.423.071-.776.248-1.093.142-.282.355-.529.603-.67.248-.141.531-.212.815-.212.283 0 .602.141.85.353l.036.176a2 2 0 00-.142.776c0 .247.035.458.106.67a.903.903 0 00.319.458.772.772 0 00.496.176c.177 0 .355-.07.603-.211s.425-.423.531-.811l.355-.6zm14.563-14.596c.709 0 1.311.036 1.843.106.531.07 1.027.106 1.417.106.39 0 .744-.035 1.028-.106a1.06 1.06 0 00.637-.6l.178.107a8.03 8.03 0 00-.249 1.48 25.7 25.7 0 00-.141 1.763c-.036.6-.071 1.269-.071 1.904 0 .67-.036 1.304-.036 1.939h-.177c-.141-2.292-.567-3.914-1.311-4.936-.744-.987-1.772-1.516-3.118-1.516-.78 0-1.417.141-1.913.423a3.573 3.573 0 00-1.205 1.093 4.31 4.31 0 00-.603 1.551 9.677 9.677 0 00-.248 1.798c-.035.6-.035 1.234-.035 1.833.035.6.035 1.129.035 1.622 0 .529 0 1.128-.035 1.763a18.054 18.054 0 00.213 3.913c.141.635.318 1.199.637 1.692.284.494.709.882 1.205 1.164.496.282 1.169.458 1.984.458.745 0 1.382-.247 1.914-.705.531-.459.957-1.058 1.346-1.798.355-.74.638-1.516.851-2.397.212-.882.354-1.693.425-2.503h.177v2.08c0 .74.036 1.48.106 2.22.036.74.107 1.41.178 2.01a9.83 9.83 0 00.283 1.516l-.212.141c-.178-.494-.497-.81-.922-.917a3.047 3.047 0 00-1.382 0c-.496.106-1.027.212-1.523.388a4.006 4.006 0 01-1.276.247 6.885 6.885 0 01-2.941-.635 6.392 6.392 0 01-2.303-1.833 8.448 8.448 0 01-1.524-2.855c-.354-1.129-.531-2.363-.531-3.737 0-1.27.177-2.468.531-3.526a8.621 8.621 0 011.524-2.75 6.69 6.69 0 012.303-1.798c.921-.493 1.878-.705 2.941-.705z"/></symbol><symbol viewBox="0 0 46 16" id="slider_arrow" xmlns="http://www.w3.org/2000/svg"><path d="M46 8.32H15.411m0 0V15L2 8.32 15.411 1v7.32z"/></symbol><symbol viewBox="0 0 23 23" id="vk" xmlns="http://www.w3.org/2000/svg"><path d="M22.878 16.79a1.57 1.57 0 00-.078-.15c-.399-.719-1.162-1.6-2.287-2.647l-.024-.024-.012-.011-.012-.012h-.012c-.51-.487-.834-.815-.97-.982-.248-.32-.303-.643-.168-.97.096-.248.455-.77 1.078-1.569.328-.423.587-.762.778-1.018 1.382-1.836 1.98-3.01 1.797-3.52l-.072-.12c-.048-.072-.171-.138-.37-.198-.2-.06-.456-.07-.767-.03l-3.45.024a.448.448 0 00-.239.006l-.155.036-.06.03-.048.036a.532.532 0 00-.132.126.822.822 0 00-.12.21 19.559 19.559 0 01-1.28 2.694c-.296.495-.567.924-.815 1.287a6.191 6.191 0 01-.623.803 4.453 4.453 0 01-.455.413c-.136.104-.24.147-.311.131a8.537 8.537 0 01-.204-.048.796.796 0 01-.27-.293 1.316 1.316 0 01-.137-.467 5.145 5.145 0 01-.042-.485 9.961 9.961 0 01.006-.575c.008-.247.012-.415.012-.503 0-.303.006-.633.018-.988l.03-.844c.008-.207.012-.427.012-.659 0-.231-.014-.413-.042-.545a1.867 1.867 0 00-.125-.383.646.646 0 00-.246-.287 1.385 1.385 0 00-.401-.162c-.423-.096-.962-.147-1.617-.155-1.485-.016-2.439.08-2.862.287a1.6 1.6 0 00-.455.36c-.144.175-.164.27-.06.287.48.071.818.243 1.018.514l.072.144c.056.104.112.288.168.551.055.263.091.555.107.874a9.32 9.32 0 010 1.497c-.04.415-.077.739-.113.97a1.966 1.966 0 01-.306.826.204.204 0 01-.06.06.896.896 0 01-.323.06c-.112 0-.248-.056-.407-.168a2.873 2.873 0 01-.497-.46 6.163 6.163 0 01-.581-.821 14.316 14.316 0 01-.67-1.245l-.192-.348c-.12-.223-.284-.549-.491-.976a18.65 18.65 0 01-.551-1.24.79.79 0 00-.287-.382l-.06-.036a.82.82 0 00-.192-.102 1.271 1.271 0 00-.275-.078l-3.281.024c-.336 0-.563.076-.683.228l-.048.071A.387.387 0 000 6.03c0 .088.024.196.072.323a39.52 39.52 0 001.563 3.258A36.603 36.603 0 003.1 12.136c.416.639.839 1.242 1.27 1.808.431.567.716.93.856 1.09.14.16.25.28.33.36l.299.287a7.2 7.2 0 00.844.688c.371.268.782.531 1.234.79.45.26.975.472 1.574.635.6.164 1.182.23 1.749.198h1.377c.28-.024.49-.112.635-.263l.047-.06a.79.79 0 00.09-.222c.028-.1.042-.21.042-.33a3.94 3.94 0 01.078-.927c.06-.275.127-.483.203-.623a1.528 1.528 0 01.462-.527.767.767 0 01.095-.041c.192-.064.417-.002.677.185.26.188.503.42.73.695.228.275.501.585.82.928.32.343.6.598.839.766l.24.144c.16.096.367.184.622.264.255.08.479.1.67.06l3.066-.048c.303 0 .54-.05.707-.15.168-.1.267-.21.3-.33a.926.926 0 00.005-.407 1.508 1.508 0 00-.084-.317z"/><defs><clipPath id="hclip0"><path d="M0 0h23v23H0z"/></clipPath></defs></symbol></svg>