<svg width="15" height="15" viewBox="0 0 15 15" fill="none" xmlns="http://www.w3.org/2000/svg">
<g clip-path="url(#clip0)">
<path d="M13.6605 1.60823C13.9977 1.60823 14.2899 1.71956 14.5382 1.93938L10.2885 6.18929C10.1865 6.11627 10.0877 6.04528 9.99436 5.97776C9.67632 5.74345 9.41821 5.5606 9.22 5.42958C9.02182 5.29826 8.75815 5.16441 8.42901 5.02776C8.09965 4.89094 7.79281 4.82274 7.50817 4.82274H7.49983H7.4915C7.20683 4.82274 6.89999 4.89091 6.57066 5.02776C6.24133 5.16441 5.97765 5.29826 5.77967 5.42958C5.58149 5.5606 5.32351 5.74342 5.00531 5.97776C4.91664 6.04277 4.8183 6.11409 4.71198 6.19043L0.461426 1.93938C0.709767 1.71956 1.00212 1.60823 1.33927 1.60823H13.6605Z" fill="black"/>
<path d="M0.845514 8.86542C0.52751 9.07743 0.245509 9.32024 0 9.59375V3.12786L3.7457 6.87357C2.99635 7.39672 2.03085 8.05991 0.845514 8.86542Z" fill="black"/>
<path d="M14.1628 8.86542C13.0227 8.09374 12.0536 7.4294 11.2556 6.87207L14.9998 3.1277V9.59375C14.7598 9.32575 14.4808 9.0831 14.1628 8.86542Z" fill="black"/>
<path d="M13.6609 13.3936H1.33969C0.909837 13.3936 0.579361 13.2484 0.34785 12.9584C0.116148 12.6682 0.000488281 12.3054 0.000488281 11.8702C0.000488281 11.5187 0.153976 11.1379 0.460814 10.7275C0.767652 10.3174 1.09415 9.99521 1.44015 9.76087C1.62983 9.62685 2.20184 9.22919 3.15618 8.56802C3.67136 8.21102 4.11937 7.89985 4.50437 7.63133C4.83253 7.40268 5.11554 7.20466 5.3492 7.04034C5.37603 7.02152 5.41821 6.99134 5.4742 6.95131C5.53453 6.90798 5.61086 6.853 5.70503 6.785C5.88638 6.65384 6.03704 6.54782 6.15703 6.46683C6.27685 6.38581 6.42203 6.29531 6.59235 6.19482C6.76253 6.09447 6.92305 6.019 7.0737 5.96881C7.22438 5.91865 7.36387 5.89349 7.4922 5.89349H7.50053H7.50886C7.63716 5.89349 7.77668 5.91865 7.92739 5.96881C8.07801 6.019 8.23839 6.0943 8.40871 6.19482C8.57886 6.29531 8.72385 6.386 8.84406 6.46683C8.96405 6.54782 9.11471 6.65381 9.29608 6.785C9.39006 6.853 9.4664 6.90801 9.52672 6.95117C9.58274 6.99137 9.6249 7.02136 9.65188 7.04034C9.83391 7.167 10.1176 7.3642 10.499 7.62901C11.1929 8.11118 12.2149 8.82085 13.5693 9.76087C13.9766 10.0454 14.3169 10.3887 14.5904 10.7904C14.8635 11.192 15.0003 11.6134 15.0003 12.0542C15.0003 12.4225 14.8676 12.7377 14.6028 13.0002C14.3376 13.2624 14.0237 13.3936 13.6609 13.3936Z" fill="black"/>
</g>
<defs>
<clipPath id="clip0">
<rect width="15" height="15" fill="white" transform="matrix(1 0 0 -1 0 15)"/>
</clipPath>
</defs>
</svg>
