<svg width="16" height="16" viewBox="0 0 16 16" fill="none" xmlns="http://www.w3.org/2000/svg">
<g clip-path="url(#clip0)">
<path d="M8.20279 0.00333482C4.95352 -0.106167 2.28516 2.49519 2.28516 5.71973C2.28516 9.37922 5.79701 12.035 7.76541 15.8544C7.86535 16.0484 8.14451 16.0486 8.24479 15.8547C10.0255 12.418 13.0689 10.1135 13.6329 6.80266C14.2169 3.37656 11.6763 0.120438 8.20279 0.00333482ZM8.00482 8.71573C6.3502 8.71573 5.00882 7.37432 5.00882 5.71973C5.00882 4.06514 6.35023 2.72373 8.00482 2.72373C9.65944 2.72373 11.0008 4.06514 11.0008 5.71973C11.0008 7.37432 9.65944 8.71573 8.00482 8.71573Z" fill="black"/>
</g>
<defs>
<clipPath id="clip0">
<rect width="16" height="16" fill="white" transform="matrix(-1 0 0 1 16 0)"/>
</clipPath>
</defs>
</svg>
