<svg width="13" height="13" viewBox="0 0 13 13" fill="none" xmlns="http://www.w3.org/2000/svg">
<g clip-path="url(#clip0)">
<path d="M12.7083 10.2738L10.7007 8.2659C10.3008 7.86762 9.63856 7.87972 9.22474 8.29368L8.21328 9.30492C8.14938 9.2697 8.08323 9.23291 8.01369 9.19389C7.37497 8.83998 6.50076 8.3549 5.58084 7.43431C4.65819 6.51177 4.17267 5.63622 3.81767 4.99708C3.78021 4.92937 3.74432 4.86409 3.70888 4.80209L4.38772 4.12426L4.72146 3.79011C5.13591 3.37554 5.14734 2.71351 4.74839 2.31407L2.74074 0.305979C2.34179 -0.0928987 1.67927 -0.0807979 1.26482 0.333766L0.698999 0.902838L0.714461 0.918188C0.524733 1.16028 0.366191 1.43949 0.248208 1.74059C0.139451 2.0272 0.0717386 2.3007 0.040777 2.57476C-0.22432 4.77247 0.77997 6.78101 3.50548 9.50656C7.27297 13.2738 10.3091 12.9892 10.44 12.9753C10.7253 12.9412 10.9987 12.873 11.2765 12.7651C11.575 12.6485 11.854 12.4902 12.096 12.3009L12.1083 12.3119L12.6816 11.7506C13.0952 11.3361 13.1071 10.6738 12.7083 10.2738Z" fill="black"/>
</g>
<defs>
<clipPath id="clip0">
<rect width="13" height="13" fill="white"/>
</clipPath>
</defs>
</svg>
