<svg width="66" height="60" viewBox="0 0 66 60" fill="none" xmlns="http://www.w3.org/2000/svg">
<circle cx="51.5" cy="38.5" r="14.5" fill="#B38144" fill-opacity="0.35"/>
<path d="M32.5301 30.5531L19.5861 21.1901C19.1901 20.9051 18.6411 20.9471 18.2931 21.2941C17.9451 21.6421 17.9021 22.1901 18.1891 22.5871L27.5541 35.5331C28.1681 36.3781 29.1171 36.9091 30.1581 36.9901C30.2521 36.9971 30.3451 37.0001 30.4371 37.0001C31.3791 37.0001 32.2851 36.6281 32.9561 35.9561C33.6931 35.2191 34.0701 34.2001 33.9891 33.1591C33.9081 32.1181 33.3771 31.1691 32.5301 30.5531ZM31.5421 34.5421C31.2181 34.8651 30.7671 35.0301 30.3141 34.9951C29.8581 34.9601 29.4411 34.7261 29.1731 34.3581L23.4601 26.4611L31.3551 32.1721C31.7261 32.4421 31.9591 32.8591 31.9951 33.3161C32.0311 33.7711 31.8651 34.2191 31.5421 34.5421Z" fill="#B38144"/>
<path d="M56.0811 26.022C56.0801 26.019 56.0811 26.015 56.0801 26.012C56.0791 26.008 56.0761 26.005 56.0751 26.001C55.4631 23.722 54.5571 21.564 53.4051 19.564C53.3951 19.543 53.3951 19.521 53.3831 19.5C53.3711 19.48 53.3521 19.469 53.3391 19.45C52.3281 17.715 51.1321 16.103 49.7731 14.641L51.9201 12.494L53.3351 13.908L57.5771 9.666L53.3351 5.423L49.0921 9.666L50.5061 11.08L48.3591 13.227C46.8971 11.869 45.2851 10.672 43.5501 9.661C43.5311 9.648 43.5201 9.629 43.5001 9.617C43.4801 9.605 43.4561 9.606 43.4361 9.595C41.4361 8.442 39.2781 7.537 37.0001 6.925C36.9961 6.924 36.9931 6.921 36.9891 6.92C36.9851 6.919 36.9821 6.92 36.9791 6.92C35.6871 6.574 34.3591 6.322 33.0001 6.171V5H34.5001C35.8791 5 37.0001 3.879 37.0001 2.5C37.0001 1.121 35.8791 0 34.5001 0H25.5001C24.1211 0 23.0001 1.121 23.0001 2.5C23.0001 3.879 24.1211 5 25.5001 5H27.0001V6.171C25.6411 6.322 24.3131 6.574 23.0221 6.92C23.0181 6.921 23.0151 6.92 23.0121 6.921C23.0081 6.922 23.0051 6.925 23.0011 6.926C20.7231 7.538 18.5651 8.444 16.5651 9.596C16.5441 9.606 16.5211 9.606 16.5001 9.618C16.4801 9.63 16.4691 9.649 16.4501 9.662C14.7161 10.673 13.1031 11.869 11.6411 13.228L9.4941 11.08L10.9081 9.666L6.6651 5.423L2.4231 9.666L6.6651 13.908L8.0801 12.494L10.2271 14.641C8.8691 16.103 7.6721 17.715 6.6621 19.45C6.6491 19.469 6.6291 19.48 6.6181 19.5C6.6061 19.521 6.6071 19.543 6.5961 19.564C5.4431 21.564 4.5381 23.722 3.9261 26.001C3.9251 26.005 3.9221 26.008 3.9211 26.012C3.9201 26.015 3.9211 26.019 3.9201 26.022C3.3231 28.25 3.0001 30.587 3.0001 33C3.0001 35.413 3.3231 37.75 3.9191 39.978C3.9201 39.982 3.9191 39.985 3.9201 39.988C3.9211 39.993 3.9251 39.997 3.9261 40.002C4.5381 42.28 5.4431 44.437 6.5951 46.436C6.6051 46.457 6.6051 46.479 6.6171 46.5C6.6341 46.529 6.6581 46.551 6.6771 46.578C7.8421 48.571 9.2501 50.405 10.8681 52.032C10.8841 52.051 10.8901 52.074 10.9081 52.092C10.9261 52.11 10.9491 52.116 10.9681 52.132C12.6021 53.758 14.4461 55.171 16.4501 56.339C16.4691 56.352 16.4801 56.371 16.5001 56.383C16.5301 56.4 16.5631 56.408 16.5941 56.422C18.5851 57.566 20.7341 58.466 23.0011 59.075C23.0051 59.076 23.0081 59.079 23.0121 59.08C23.0171 59.081 23.0221 59.081 23.0271 59.082C25.2531 59.678 27.5891 60 30.0001 60C32.4111 60 34.7471 59.678 36.9731 59.082C36.9781 59.081 36.9831 59.082 36.9881 59.08C36.9921 59.079 36.9951 59.076 36.9991 59.075C39.2661 58.466 41.4141 57.566 43.4061 56.422C43.4371 56.408 43.4701 56.401 43.5001 56.383C43.5201 56.371 43.5311 56.352 43.5501 56.339C45.5541 55.171 47.3971 53.758 49.0321 52.132C49.0511 52.116 49.0741 52.11 49.0921 52.092C49.1101 52.074 49.1161 52.05 49.1321 52.032C50.7501 50.405 52.1581 48.571 53.3231 46.578C53.3421 46.551 53.3661 46.53 53.3831 46.5C53.3951 46.479 53.3941 46.457 53.4051 46.436C54.5571 44.437 55.4621 42.28 56.0741 40.002C56.0751 39.997 56.0791 39.993 56.0801 39.988C56.0811 39.985 56.0801 39.981 56.0811 39.978C56.6771 37.75 57.0001 35.413 57.0001 33C57.0001 30.587 56.6771 28.25 56.0811 26.022ZM53.3351 8.251L54.7491 9.666L53.3351 11.08L51.9201 9.666L53.3351 8.251ZM5.2511 9.666L6.6651 8.251L8.0801 9.666L6.6651 11.08L5.2511 9.666ZM51.9571 39.919L53.8721 40.432C53.4171 41.89 52.8271 43.289 52.1251 44.62L50.4181 43.634C49.9401 43.357 49.3281 43.52 49.0521 44C48.7761 44.479 48.9401 45.09 49.4181 45.366L51.1211 46.349C50.3081 47.631 49.3851 48.835 48.3591 49.945L46.9701 48.556C46.5791 48.165 45.9471 48.165 45.5561 48.556C45.1651 48.947 45.1651 49.579 45.5561 49.97L46.9451 51.359C45.8351 52.385 44.6311 53.308 43.3491 54.121L42.3661 52.418C42.0891 51.938 41.4761 51.774 41.0001 52.052C40.5211 52.328 40.3571 52.94 40.6341 53.418L41.6201 55.125C40.2891 55.827 38.8911 56.417 37.4321 56.872L36.9191 54.958C36.7761 54.424 36.2281 54.106 35.6941 54.251C35.1611 54.394 34.8441 54.942 34.9871 55.476L35.4981 57.384C34.0421 57.712 32.5391 57.914 31.0001 57.975V56C31.0001 55.447 30.5531 55 30.0001 55C29.4471 55 29.0001 55.447 29.0001 56V57.975C27.4611 57.914 25.9581 57.712 24.5021 57.384L25.0131 55.476C25.1561 54.943 24.8391 54.394 24.3061 54.251C23.7731 54.107 23.2241 54.424 23.0811 54.958L22.5681 56.872C21.1101 56.417 19.7111 55.827 18.3801 55.125L19.3661 53.418C19.6421 52.939 19.4781 52.328 19.0001 52.052C18.5221 51.775 17.9101 51.938 17.6341 52.418L16.6511 54.121C15.3691 53.308 14.1651 52.385 13.0551 51.359L14.4441 49.97C14.8351 49.579 14.8351 48.947 14.4441 48.556C14.0531 48.165 13.4211 48.165 13.0301 48.556L11.6411 49.945C10.6151 48.835 9.6921 47.631 8.8791 46.349L10.5821 45.366C11.0611 45.09 11.2251 44.478 10.9481 44C10.6711 43.52 10.0581 43.356 9.5821 43.634L7.8751 44.62C7.1731 43.289 6.5831 41.891 6.1281 40.432L8.0431 39.919C8.5761 39.776 8.8931 39.228 8.7501 38.694C8.6081 38.16 8.0601 37.842 7.5251 37.987L5.6161 38.498C5.2891 37.042 5.0861 35.539 5.0251 34H7.0001C7.5531 34 8.0001 33.553 8.0001 33C8.0001 32.447 7.5531 32 7.0001 32H5.0251C5.0861 30.461 5.2881 28.958 5.6161 27.502L7.5251 28.014C7.6121 28.037 7.6991 28.048 7.7851 28.048C8.2261 28.048 8.6301 27.754 8.7501 27.307C8.8941 26.774 8.5761 26.225 8.0431 26.082L6.1281 25.568C6.5831 24.11 7.1731 22.711 7.8751 21.38L9.5821 22.366C9.7381 22.457 9.9101 22.5 10.0801 22.5C10.4261 22.5 10.7621 22.321 10.9471 22C11.2231 21.521 11.0591 20.91 10.5811 20.634L8.8781 19.651C9.6911 18.369 10.6141 17.165 11.6401 16.055L13.0291 17.444C13.2241 17.639 13.4801 17.737 13.7361 17.737C13.9921 17.737 14.2481 17.639 14.4431 17.444C14.8341 17.053 14.8341 16.421 14.4431 16.03L13.0541 14.641C14.1641 13.616 15.3681 12.692 16.6501 11.879L17.6331 13.583C17.8191 13.903 18.1541 14.083 18.5001 14.083C18.6701 14.083 18.8421 14.04 18.9991 13.949C19.4781 13.673 19.6421 13.061 19.3651 12.583L18.3791 10.875C19.7101 10.173 21.1081 9.583 22.5671 9.128L23.0801 11.043C23.1991 11.489 23.6031 11.784 24.0451 11.784C24.1311 11.784 24.2181 11.773 24.3051 11.75C24.8381 11.607 25.1551 11.059 25.0121 10.525L24.5011 8.616C25.6731 8.352 26.8741 8.171 28.1011 8.079C28.4111 8.056 28.6911 8.039 28.9621 8.026C28.9751 8.026 28.9871 8.026 29.0001 8.025V10C29.0001 10.553 29.4471 11 30.0001 11C30.5531 11 31.0001 10.553 31.0001 10V8.025C31.0131 8.025 31.0251 8.025 31.0381 8.026C31.3091 8.039 31.5881 8.056 31.8991 8.079C33.1261 8.172 34.3281 8.352 35.4991 8.616L34.9881 10.525C34.8451 11.058 35.1621 11.607 35.6951 11.75C35.7821 11.773 35.8691 11.784 35.9551 11.784C36.3961 11.784 36.8011 11.489 36.9201 11.043L37.4331 9.128C38.8911 9.583 40.2901 10.173 41.6211 10.875L40.6351 12.583C40.3591 13.062 40.5231 13.673 41.0011 13.949C41.1581 14.04 41.3301 14.083 41.5001 14.083C41.8461 14.083 42.1821 13.903 42.3671 13.583L43.3501 11.879C44.6321 12.692 45.8361 13.616 46.9461 14.641L45.5571 16.03C45.1661 16.421 45.1661 17.053 45.5571 17.444C45.7521 17.639 46.0081 17.737 46.2641 17.737C46.5201 17.737 46.7761 17.639 46.9711 17.444L48.3601 16.055C49.3861 17.165 50.3091 18.369 51.1221 19.651L49.4191 20.634C48.9401 20.91 48.7761 21.521 49.0531 22C49.2391 22.321 49.5741 22.5 49.9201 22.5C50.0901 22.5 50.2621 22.457 50.4191 22.366L52.1261 21.38C52.8281 22.711 53.4181 24.109 53.8731 25.568L51.9581 26.082C51.4251 26.225 51.1071 26.773 51.2511 27.307C51.3711 27.754 51.7741 28.048 52.2161 28.048C52.3021 28.048 52.3891 28.037 52.4761 28.014L54.3851 27.502C54.7131 28.958 54.9151 30.461 54.9761 32H53.0001C52.4471 32 52.0001 32.447 52.0001 33C52.0001 33.553 52.4471 34 53.0001 34H54.9751C54.9141 35.539 54.7121 37.042 54.3841 38.499L52.4751 37.988C51.9441 37.844 51.3931 38.162 51.2501 38.695C51.1071 39.228 51.4241 39.776 51.9571 39.919ZM29.0001 6.022V3H25.5001C25.2251 3 25.0001 2.775 25.0001 2.5C25.0001 2.225 25.2251 2 25.5001 2H34.5001C34.7751 2 35.0001 2.225 35.0001 2.5C35.0001 2.775 34.7751 3 34.5001 3H31.0001V6.022C30.6501 6.007 30.3211 6 30.0001 6C29.6791 6 29.3501 6.007 29.0001 6.022Z" fill="#B38144"/>
</svg>
