<svg width="66" height="60" viewBox="0 0 66 60" fill="none" xmlns="http://www.w3.org/2000/svg">
<circle cx="51.5" cy="38.5" r="14.5" fill="#B38144" fill-opacity="0.35"/>
<g clip-path="url(#clip0)">
<path d="M42.6948 15.646L41.3501 10.2671C41.2443 9.85334 41.0501 9.4674 40.781 9.1358L45.832 1.5547C46.0365 1.24787 46.0556 0.853355 45.8816 0.528208C45.7077 0.203062 45.3688 5.55846e-05 45.0001 1.14614e-07H35.3301C34.9957 -0.000159775 34.6833 0.166977 34.498 0.4453L30.0001 7.1965L25.5021 0.4453C25.3167 0.167007 25.0044 -0.000126305 24.6701 1.14614e-07H15.0001C14.6313 1.87146e-05 14.2924 0.20301 14.1184 0.528164C13.9444 0.853318 13.9635 1.24785 14.1681 1.5547L19.2148 9.13C18.9474 9.46449 18.7548 9.8524 18.65 10.2676L17.3054 15.646C8.21444 21.3121 3.97924 32.3169 6.926 42.6158C9.87276 52.9147 19.2879 60.0137 30.0001 60.0137C40.7122 60.0137 50.1274 52.9147 53.0741 42.6158C56.0209 32.3169 51.7857 21.3121 42.6948 15.646ZM35.8653 2H43.1324L39.0766 8.0872C38.8682 8.03534 38.6548 8.0061 38.4401 8H31.8679L35.8653 2ZM24.1353 2L28.1327 8H21.5601C21.344 8.00341 21.129 8.03023 20.9188 8.08L16.8678 2H24.1353ZM20.5901 10.752C20.6523 10.4873 20.8228 10.2609 21.0601 10.1279C21.2142 10.0461 21.3856 10.0022 21.5601 10H38.4401C38.622 10.0008 38.8004 10.0498 38.9572 10.1421C39.1824 10.278 39.345 10.4972 39.4099 10.7521L40.3038 14.3284C33.7855 11.2235 26.2147 11.2235 19.6965 14.3284L20.5901 10.752ZM30.0001 58C17.8498 58 8.00007 48.1503 8.00007 36C8.00007 23.8497 17.8498 14 30.0001 14C42.1503 14 52.0001 23.8497 52.0001 36C51.9864 48.1446 42.1447 57.9863 30.0001 58Z" fill="#B38144"/>
<path d="M36.2648 53.0388C35.4389 52.8027 34.6286 52.515 33.8386 52.1774C34.4312 51.6012 34.9657 50.9682 35.4343 50.2874C35.7388 49.832 35.6203 49.2165 35.1685 48.9068C34.7168 48.597 34.0999 48.7084 33.7849 49.1565C33.128 50.1017 32.3285 50.9395 31.4149 51.6399C31.1456 51.8492 31.0016 52.1813 31.0328 52.521C31.064 52.8606 31.2662 53.161 31.5691 53.3177C32.8933 54.0016 34.2821 54.5523 35.7151 54.9617C36.0598 55.0637 36.4327 54.9729 36.6919 54.7238C36.9511 54.4747 37.0567 54.1057 36.9684 53.7573C36.8801 53.4088 36.6116 53.1345 36.2651 53.0389L36.2648 53.0388Z" fill="#B38144"/>
<path d="M41.9923 50.0672C41.1877 50.0978 40.3819 50.0705 39.5812 49.9857C39.8554 49.2284 40.0584 48.4471 40.1876 47.6522C40.2758 47.1069 39.9053 46.5934 39.36 46.5052C38.8147 46.417 38.3012 46.7875 38.213 47.3328C38.0413 48.3812 37.7203 49.3997 37.2599 50.3572C37.1255 50.6379 37.1295 50.9651 37.2706 51.2424C37.4117 51.5198 37.6739 51.7156 37.9799 51.7723C39.0925 51.9771 40.2216 52.0799 41.3529 52.0794C41.5912 52.0794 41.8296 52.075 42.0683 52.0662C42.6203 52.0451 43.0507 51.5806 43.0297 51.0286C43.0086 50.4766 42.5441 50.0461 41.9921 50.0672H41.9923Z" fill="#B38144"/>
<path d="M45.8463 45.5221C45.1351 45.802 44.4039 46.028 43.6588 46.1983C43.6254 45.385 43.5244 44.5759 43.357 43.7794C43.2832 43.4298 43.0285 43.1461 42.6889 43.0352C42.3492 42.9244 41.9762 43.0031 41.7104 43.2418C41.4445 43.4805 41.3262 43.8429 41.4 44.1925C41.618 45.2332 41.7055 46.2971 41.6607 47.3595C41.6496 47.6316 41.75 47.8964 41.9386 48.0928C42.1273 48.2892 42.3878 48.4001 42.6601 48.4001C42.7078 48.4002 42.7554 48.3968 42.8026 48.3901C44.0957 48.2011 45.3625 47.8632 46.578 47.3833C46.9149 47.2557 47.1571 46.9568 47.2121 46.6008C47.2671 46.2448 47.1264 45.8867 46.8438 45.6634C46.5611 45.4401 46.1802 45.3861 45.8466 45.522L45.8463 45.5221Z" fill="#B38144"/>
<path d="M47.8877 40.0079C47.314 40.4962 46.7054 40.942 46.0669 41.3419C45.7704 40.5885 45.416 39.8592 45.0069 39.1607C44.7253 38.6887 44.1157 38.5324 43.6417 38.8107C43.1678 39.089 43.0073 39.6975 43.2823 40.1734C43.821 41.0966 44.252 42.0786 44.5669 43.1C44.6547 43.3826 44.8631 43.6117 45.1361 43.7258C45.4091 43.84 45.7186 43.8273 45.9814 43.6914C47.1265 43.0949 48.2004 42.3707 49.1826 41.5327C49.6035 41.1751 49.6549 40.544 49.2973 40.123C48.9398 39.7021 48.3086 39.6507 47.8877 40.0083V40.0079Z" fill="#B38144"/>
<path d="M48.149 34.1037C47.7473 34.7558 47.3005 35.3789 46.8116 35.9685C46.3065 35.3549 45.7549 34.7812 45.1616 34.2526C44.7479 33.8935 44.1223 33.9341 43.7585 34.3437C43.3947 34.7533 43.4281 35.3793 43.8335 35.7478C44.621 36.4523 45.325 37.245 45.9317 38.1102C46.1033 38.353 46.374 38.5069 46.6705 38.5302C46.6964 38.5321 46.7228 38.5331 46.7486 38.5331C47.0186 38.5331 47.2771 38.4239 47.4654 38.2304C48.37 37.2947 49.17 36.2632 49.8512 35.1542C50.1413 34.6841 49.9955 34.0678 49.5255 33.7777C49.0554 33.4875 48.4391 33.6333 48.149 34.1034V34.1037Z" fill="#B38144"/>
<path d="M42.5181 30.0566C42.4141 30.3006 42.4113 30.5759 42.5102 30.822C42.6092 31.068 42.8019 31.2647 43.0459 31.3687C44.0033 31.7806 44.9082 32.305 45.7417 32.9307C45.9144 33.0597 46.1242 33.1294 46.3398 33.1294C46.4182 33.1292 46.4964 33.1201 46.5728 33.1021C46.8614 33.0327 47.1045 32.8388 47.2363 32.5728C47.8167 31.3941 48.2663 30.1555 48.5771 28.8789C48.6659 28.5306 48.5609 28.1615 48.3022 27.912C48.0435 27.6625 47.6708 27.5711 47.326 27.6725C46.9812 27.7739 46.7173 28.0525 46.6348 28.4023C46.4495 29.16 46.2101 29.9035 45.9185 30.627C45.2527 30.2059 44.5543 29.8386 43.83 29.5288C43.5861 29.4246 43.3107 29.4218 43.0646 29.5208C42.8186 29.6198 42.6219 29.8125 42.5181 30.0566Z" fill="#B38144"/>
<path d="M40.8956 27.4753C41.9474 27.552 42.9862 27.7552 43.9894 28.0803C44.2709 28.1708 44.578 28.1321 44.8282 27.9746C45.0784 27.817 45.2461 27.5569 45.2862 27.2639C45.4642 25.9542 45.4851 24.6279 45.3482 23.3132C45.3169 22.9535 45.0941 22.6386 44.7653 22.4894C44.4366 22.3401 44.0529 22.3797 43.7615 22.5929C43.4701 22.8061 43.3162 23.1598 43.359 23.5183C43.4389 24.2913 43.4575 25.0695 43.4147 25.8454C42.633 25.6596 41.8376 25.5374 41.0362 25.4802C40.4853 25.4414 40.0072 25.8565 39.9683 26.4075C39.9295 26.9584 40.3447 27.4365 40.8956 27.4753Z" fill="#B38144"/>
<path d="M26.2153 49.1565C25.9003 48.7084 25.2834 48.597 24.8317 48.9068C24.3799 49.2165 24.2614 49.832 24.5659 50.2874C25.0345 50.9682 25.5689 51.6012 26.1616 52.1774C25.3716 52.5149 24.5613 52.8026 23.7354 53.0388C23.3889 53.1344 23.1204 53.4087 23.0321 53.7571C22.9438 54.1056 23.0494 54.4746 23.3086 54.7237C23.5678 54.9728 23.9407 55.0636 24.2854 54.9615C25.7184 54.5522 27.1072 54.0015 28.4314 53.3175C28.7343 53.1608 28.9365 52.8605 28.9677 52.5209C28.9989 52.1812 28.8549 51.8491 28.5856 51.6398C27.6719 50.9394 26.8723 50.1017 26.2153 49.1565Z" fill="#B38144"/>
<path d="M21.7871 47.3321C21.7301 46.9794 21.4892 46.6839 21.1552 46.557C20.8212 46.43 20.4448 46.4909 20.1679 46.7167C19.8909 46.9424 19.7555 47.2988 19.8125 47.6515C19.9417 48.4465 20.1448 49.2277 20.4189 49.985C19.6182 50.0703 18.8124 50.0976 18.0078 50.0665C17.4558 50.0455 16.9913 50.4759 16.9702 51.0279C16.9492 51.58 17.3796 52.0445 17.9316 52.0655C18.1704 52.0743 18.4089 52.0787 18.647 52.0787C19.7784 52.0792 20.9074 51.9764 22.02 51.7716C22.326 51.715 22.5882 51.5192 22.7293 51.2418C22.8704 50.9645 22.8744 50.6372 22.74 50.3565C22.2797 49.3991 21.9588 48.3806 21.7871 47.3321Z" fill="#B38144"/>
<path d="M17.3401 48.4C17.6125 48.4 17.873 48.2889 18.0616 48.0924C18.2501 47.896 18.3504 47.6311 18.3392 47.359C18.2944 46.2966 18.382 45.2327 18.5999 44.192C18.6737 43.8424 18.5554 43.48 18.2896 43.2413C18.0237 43.0026 17.6507 42.9239 17.3111 43.0348C16.9714 43.1456 16.7167 43.4293 16.6429 43.7789C16.4755 44.5754 16.3746 45.3845 16.3411 46.1978C15.5961 46.0275 14.8648 45.8015 14.1536 45.5216C13.82 45.3857 13.4391 45.4397 13.1565 45.663C12.8738 45.8863 12.7331 46.2444 12.7881 46.6004C12.8431 46.9564 13.0854 47.2553 13.4222 47.3829C14.6378 47.863 15.9048 48.2009 17.1979 48.39C17.245 48.3967 17.2926 48.4001 17.3401 48.4Z" fill="#B38144"/>
<path d="M14.478 43.8027C14.9158 43.8024 15.3027 43.5177 15.4331 43.0997C15.748 42.0783 16.1791 41.0965 16.7178 40.1734C16.9928 39.6975 16.8322 39.089 16.3583 38.8107C15.8844 38.5324 15.2748 38.6887 14.9932 39.1607C14.584 39.8592 14.2296 40.5885 13.9332 41.3419C13.2946 40.942 12.6861 40.4962 12.1124 40.0079C11.8401 39.7765 11.4651 39.7081 11.1286 39.8282C10.7921 39.9484 10.5453 40.239 10.4811 40.5904C10.417 40.9419 10.5452 41.3009 10.8175 41.5323C11.7997 42.3703 12.8736 43.0945 14.0187 43.6909C14.1607 43.7644 14.3182 43.8027 14.478 43.8027Z" fill="#B38144"/>
<path d="M13.2517 38.5332C13.2775 38.5332 13.3039 38.5322 13.3298 38.5303C13.6262 38.507 13.897 38.3531 14.0686 38.1103C14.6753 37.2451 15.3792 36.4525 16.1667 35.748C16.5721 35.3795 16.6055 34.7535 16.2417 34.3439C15.8779 33.9343 15.2523 33.8937 14.8386 34.2528C14.2453 34.7814 13.6936 35.3551 13.1886 35.9687C12.6997 35.3791 12.2528 34.756 11.8512 34.1039C11.561 33.6338 10.9448 33.488 10.4747 33.7782C10.0047 34.0683 9.85883 34.6846 10.149 35.1547C10.8302 36.2637 11.6302 37.2951 12.5348 38.2309C12.7232 38.4243 12.9817 38.5333 13.2517 38.5332Z" fill="#B38144"/>
<path d="M12.7637 32.5729C12.8955 32.8389 13.1385 33.0328 13.4272 33.1022C13.5035 33.1202 13.5817 33.1293 13.6602 33.1295C13.8757 33.1295 14.0855 33.0598 14.2583 32.9308C15.0917 32.305 15.9967 31.7807 16.9541 31.3688C17.4622 31.1522 17.6985 30.5648 17.482 30.0567C17.2654 29.5486 16.678 29.3122 16.1699 29.5288C15.4456 29.8386 14.7472 30.2059 14.0815 30.627C13.7898 29.9035 13.5505 29.16 13.3652 28.4023C13.2827 28.0525 13.0188 27.7739 12.674 27.6725C12.3291 27.5711 11.9565 27.6625 11.6977 27.912C11.439 28.1615 11.3341 28.5306 11.4229 28.8789C11.7336 30.1555 12.1832 31.3942 12.7637 32.5729Z" fill="#B38144"/>
<path d="M15.1719 27.9743C15.4221 28.1318 15.7291 28.1706 16.0107 28.0803C17.0139 27.7552 18.0527 27.552 19.1045 27.4753C19.6554 27.4365 20.0706 26.9584 20.0317 26.4075C19.9929 25.8565 19.5148 25.4414 18.9639 25.4802C18.1625 25.5374 17.367 25.6596 16.5854 25.8454C16.5425 25.0695 16.5612 24.2913 16.6411 23.5183C16.6838 23.1598 16.53 22.8061 16.2386 22.5929C15.9472 22.3797 15.5635 22.3401 15.2347 22.4894C14.906 22.6386 14.6832 22.9535 14.6519 23.3132C14.515 24.6279 14.5358 25.9542 14.7139 27.2639C14.7538 27.5569 14.9215 27.8171 15.1719 27.9743Z" fill="#B38144"/>
</g>
<defs>
<clipPath id="clip0">
<rect width="60" height="60" fill="white"/>
</clipPath>
</defs>
</svg>
