<svg width="66" height="60" viewBox="0 0 66 60" fill="none" xmlns="http://www.w3.org/2000/svg">
<circle cx="51.5" cy="38.5" r="14.5" fill="#B38144" fill-opacity="0.35"/>
<g clip-path="url(#clip0)">
<path d="M37.4348 16.614C37.5984 16.3821 37.7283 16.1282 37.8201 15.8596C38.2317 15.929 38.6243 16.0857 38.97 16.3196C39.6658 16.7898 40.4817 17.0505 41.3211 17.072C41.5862 17.0711 41.8504 17.0466 42.1111 16.9998C43.2093 16.8123 44.1883 16.196 44.8318 15.2869C45.1766 14.7434 45.7342 14.3703 46.3675 14.2585C47.0013 14.1472 47.6527 14.3069 48.1619 14.6999C49.0784 15.3342 50.2088 15.5784 51.305 15.3787L50.9569 13.4089C50.3236 13.5207 49.6722 13.3606 49.1629 12.968C47.2528 11.6609 44.6482 12.1203 43.3001 14.0017C42.9554 14.5452 42.3977 14.9182 41.7639 15.03C41.4754 15.0881 41.177 15.0808 40.8909 15.009C41.4827 14.8528 42.0301 14.5622 42.491 14.1599C43.3484 13.4485 43.888 12.425 43.991 11.3156C44.0179 10.6726 44.3143 10.071 44.8079 9.65791C45.2986 9.23994 45.9441 9.05244 46.5818 9.14179C47.6937 9.24287 48.7987 8.8874 49.6429 8.1579L48.3543 6.62664C47.8558 7.02947 47.2166 7.21502 46.5799 7.14178C44.2723 6.96551 42.2459 8.66523 42.0188 10.969C41.9925 11.611 41.6966 12.2126 41.2044 12.6262C40.7117 13.0393 40.0681 13.2268 39.4309 13.1418C38.8069 13.0935 38.1794 13.177 37.5901 13.3879C37.3147 12.9104 36.9128 12.5178 36.4289 12.2536L40.9002 3.32193C41.0554 3.01089 41.0383 2.64174 40.8548 2.34633C40.6712 2.05141 40.3474 1.8727 40.0003 1.87465C39.2957 1.881 38.6194 1.59926 38.1282 1.09486C36.3625 -0.531619 33.6452 -0.531619 31.8801 1.09486C31.384 1.59486 30.7087 1.87563 30.0046 1.87563C29.3 1.87563 28.6252 1.59486 28.1291 1.09486C26.362 -0.530643 23.6442 -0.530643 21.8771 1.09486C21.3839 1.59974 20.7057 1.88148 20.0001 1.87465C19.6534 1.87465 19.3311 2.05385 19.149 2.34877C18.9664 2.64321 18.9498 3.01186 19.1051 3.32193L23.5709 12.2536C22.8141 12.6574 22.2687 13.3689 22.0758 14.2048C21.8829 15.0408 22.0611 15.9192 22.5651 16.614C13.396 19.0769 7.0166 27.3807 7 36.8749V54.875C7.00293 57.6353 9.23976 59.8717 12 59.8751H48.0003C50.7601 59.8717 52.9969 57.6353 53.0004 54.875V36.8749C52.9833 27.3807 46.6038 19.0769 37.4348 16.614ZM23.1261 2.6559C23.6227 2.1559 24.298 1.87465 25.0031 1.87465C25.7077 1.87465 26.3834 2.1559 26.88 2.6559C28.6462 4.28092 31.3635 4.28092 33.1301 2.6559C33.6257 2.1559 34.3 1.87465 35.0041 1.87465C35.7077 1.87465 36.3825 2.1559 36.8782 2.6559C37.3557 3.07729 37.9055 3.40982 38.5012 3.63687L34.382 11.8747H25.6178L21.5001 3.63785C22.0963 3.41031 22.6471 3.07778 23.1261 2.6559ZM25.0001 15.8748C24.4474 15.8748 24.0001 15.427 24.0001 14.8747C24.0001 14.3225 24.4474 13.8747 25.0001 13.8747H35.0002C35.5525 13.8747 36.0002 14.3225 36.0002 14.8747C36.0002 15.427 35.5525 15.8748 35.0002 15.8748H25.0001ZM51.0003 54.875C51.0003 56.5318 49.6571 57.8751 48.0003 57.8751H12C10.3428 57.8751 9.00002 56.5318 9.00002 54.875V36.8749C9.01125 26.3861 17.5113 17.8865 28.0002 17.8748H32.0002C42.4886 17.8865 50.9886 26.3861 51.0003 36.8749V54.875Z" fill="#B38144"/>
<path d="M23.2925 44.1676L35.2931 32.1675L36.7071 33.5816L24.707 45.5821L23.2925 44.1676Z" fill="#B38144"/>
<path d="M34 39.875C32.3428 39.875 31 41.2183 31 42.875C31 44.5318 32.3428 45.875 34 45.875C35.6568 45.875 37.0001 44.5318 37.0001 42.875C37.0001 41.2183 35.6568 39.875 34 39.875ZM34 43.875C33.4473 43.875 33 43.4273 33 42.875C33 42.3228 33.4473 41.875 34 41.875C34.5523 41.875 35 42.3228 35 42.875C35 43.4273 34.5523 43.875 34 43.875Z" fill="#B38144"/>
<path d="M26 37.8746C27.6568 37.8746 29 36.5313 29 34.8745C29 33.2178 27.6568 31.8745 26 31.8745C24.3428 31.8745 23 33.2178 23 34.8745C23 36.5313 24.3428 37.8746 26 37.8746ZM26 33.8745C26.5523 33.8745 27 34.3223 27 34.8745C27 35.4268 26.5523 35.8745 26 35.8745C25.4473 35.8745 25 35.4268 25 34.8745C25 34.3223 25.4473 33.8745 26 33.8745Z" fill="#B38144"/>
<path d="M30.0001 24.8745C22.2676 24.8745 16 31.1426 16 38.8746C16 46.6066 22.2676 52.8747 30.0001 52.8747C37.7321 52.8747 44.0002 46.6066 44.0002 38.8746C43.9919 31.146 37.7287 24.8828 30.0001 24.8745ZM30.0001 50.8747C23.3726 50.8747 18 45.5021 18 38.8746C18 32.2471 23.3726 26.8745 30.0001 26.8745C36.6271 26.8745 42.0002 32.2471 42.0002 38.8746C41.9929 45.4992 36.6242 50.8674 30.0001 50.8747Z" fill="#B38144"/>
</g>
<defs>
<clipPath id="clip0">
<rect width="60" height="60" fill="white"/>
</clipPath>
</defs>
</svg>
