<svg width="68" height="60" viewBox="0 0 68 60" fill="none" xmlns="http://www.w3.org/2000/svg">
<path d="M58.125 8.4375H53.4375V5.625C53.4375 5.37636 53.3387 5.1379 53.1629 4.96209C52.9871 4.78627 52.7486 4.6875 52.5 4.6875H7.49996C7.25132 4.6875 7.01287 4.78627 6.83705 4.96209C6.66123 5.1379 6.56246 5.37636 6.56246 5.625V8.4375H1.87496C1.62632 8.4375 1.38787 8.53627 1.21205 8.71209C1.03623 8.8879 0.937463 9.12636 0.937463 9.375V16.875C0.913178 19.949 1.52533 22.9948 2.73539 25.8207C3.94546 28.6466 5.72727 31.1915 7.96871 33.2953L8.43746 53.4591C8.4431 53.7039 8.54435 53.9369 8.71956 54.1081C8.89477 54.2793 9.13001 54.3751 9.37496 54.375H50.625C50.8699 54.3751 51.1052 54.2793 51.2804 54.1081C51.4556 53.9369 51.5568 53.7039 51.5625 53.4591L52.0312 33.2953C54.2727 31.1915 56.0545 28.6466 57.2645 25.8207C58.4746 22.9948 59.0867 19.949 59.0625 16.875V9.375C59.0625 9.12636 58.9637 8.8879 58.7879 8.71209C58.6121 8.53627 58.3736 8.4375 58.125 8.4375ZM50.1721 32.5875C46.551 35.6721 42.1796 37.746 37.5 38.5997V37.5C37.5 37.2514 37.4012 37.0129 37.2254 36.8371C37.0496 36.6613 36.8111 36.5625 36.5625 36.5625H23.4375C23.1888 36.5625 22.9504 36.6613 22.7745 36.8371C22.5987 37.0129 22.5 37.2514 22.5 37.5V38.5997C17.8203 37.746 13.449 35.6721 9.82778 32.5875L9.39652 14.0625H50.6034L50.1721 32.5875ZM35.625 38.4375V42.1875H24.375V38.4375H35.625ZM8.43746 6.5625H51.5625V12.1875H8.43746V6.5625ZM2.81246 16.875V10.3125H6.56246V13.125C6.56246 13.3736 6.66123 13.6121 6.83705 13.7879C7.01287 13.9637 7.25132 14.0625 7.49996 14.0625H7.52152L7.90684 30.6478C4.6037 26.8213 2.79449 21.93 2.81246 16.875ZM49.709 52.5H10.2909L9.88215 34.9472C13.6035 37.7466 17.922 39.647 22.5 40.5V43.125C22.5 43.3736 22.5987 43.6121 22.7745 43.7879C22.9504 43.9637 23.1888 44.0625 23.4375 44.0625H36.5625C36.8111 44.0625 37.0496 43.9637 37.2254 43.7879C37.4012 43.6121 37.5 43.3736 37.5 43.125V40.5C42.0776 39.6479 46.3962 37.7484 50.1178 34.95L49.709 52.5ZM57.1875 16.875C57.2054 21.93 55.3962 26.8213 52.0931 30.6478L52.4784 14.0625H52.5C52.7486 14.0625 52.9871 13.9637 53.1629 13.7879C53.3387 13.6121 53.4375 13.3736 53.4375 13.125V10.3125H57.1875V16.875Z" fill="#B38144"/>
<path d="M21.5625 48.75H13.125C12.8764 48.75 12.6379 48.8488 12.4621 49.0246C12.2863 49.2004 12.1875 49.4389 12.1875 49.6875C12.1875 49.9361 12.2863 50.1746 12.4621 50.3504C12.6379 50.5262 12.8764 50.625 13.125 50.625H21.5625C21.8111 50.625 22.0496 50.5262 22.2254 50.3504C22.4012 50.1746 22.5 49.9361 22.5 49.6875C22.5 49.4389 22.4012 49.2004 22.2254 49.0246C22.0496 48.8488 21.8111 48.75 21.5625 48.75Z" fill="#B38144"/>
<path d="M26.25 48.75H24.375C24.1264 48.75 23.8879 48.8488 23.7121 49.0246C23.5363 49.2004 23.4375 49.4389 23.4375 49.6875C23.4375 49.9361 23.5363 50.1746 23.7121 50.3504C23.8879 50.5262 24.1264 50.625 24.375 50.625H26.25C26.4986 50.625 26.7371 50.5262 26.9129 50.3504C27.0887 50.1746 27.1875 49.9361 27.1875 49.6875C27.1875 49.4389 27.0887 49.2004 26.9129 49.0246C26.7371 48.8488 26.4986 48.75 26.25 48.75Z" fill="#B38144"/>
<circle cx="53.5" cy="38.5" r="14.5" fill="#B38144" fill-opacity="0.35"/>
</svg>
