<svg width="19" height="19" viewBox="0 0 19 19" fill="none" xmlns="http://www.w3.org/2000/svg">
<g clip-path="url(#clip0)">
<path d="M14.2493 0.00395327L11.7855 0C9.01743 0 7.2286 1.8353 7.2286 4.67593V6.83184L4.75131 6.83184C4.53724 6.83184 4.36389 7.00539 4.36389 7.21946L4.36389 10.3431C4.36389 10.5572 4.53744 10.7306 4.75131 10.7306H7.2286L7.2286 18.6126C7.2286 18.8267 7.40195 19 7.61601 19H10.8482C11.0622 19 11.2356 18.8265 11.2356 18.6126L11.2356 10.7306H14.1321C14.3462 10.7306 14.5195 10.5572 14.5195 10.3431L14.5207 7.21946C14.5207 7.11667 14.4798 7.01824 14.4073 6.9455C14.3347 6.87276 14.2359 6.83184 14.1331 6.83184L11.2356 6.83184V5.00424C11.2356 4.12583 11.4449 3.6799 12.5892 3.6799L14.2489 3.67931C14.4628 3.67931 14.6362 3.50576 14.6362 3.29189V0.391374C14.6362 0.177699 14.463 0.0043486 14.2493 0.00395327Z" fill="#2B2B2B"/>
</g>
<defs>
<clipPath id="clip0">
<rect width="19" height="19" fill="white" transform="translate(0.00012207)"/>
</clipPath>
</defs>
</svg>
