<svg width="17" height="17" viewBox="0 0 17 17" fill="none" xmlns="http://www.w3.org/2000/svg">
<g clip-path="url(#clip0)">
<path d="M11.6876 0L5.31262 0C2.37906 0 0.00012207 2.37894 0.00012207 5.3125L0.00012207 11.6875C0.00012207 14.6211 2.37906 17 5.31262 17L11.6876 17C14.6212 17 17.0001 14.6211 17.0001 11.6875L17.0001 5.3125C17.0001 2.37894 14.6212 0 11.6876 0ZM15.4064 11.6875C15.4064 13.7381 13.7382 15.4063 11.6876 15.4063L5.31262 15.4062C3.262 15.4062 1.59387 13.7381 1.59387 11.6875L1.59387 5.3125C1.59387 3.26188 3.262 1.59375 5.31262 1.59375L11.6876 1.59375C13.7382 1.59375 15.4064 3.26188 15.4064 5.3125L15.4064 11.6875Z" fill="#2B2B2B"/>
<path d="M8.50012 4.25C6.15306 4.25 4.25012 6.15294 4.25012 8.5C4.25012 10.8471 6.15306 12.75 8.50012 12.75C10.8472 12.75 12.7501 10.8471 12.7501 8.5C12.7501 6.15294 10.8472 4.25 8.50012 4.25ZM8.50012 11.1562C7.036 11.1562 5.84387 9.96413 5.84387 8.5C5.84387 7.03481 7.036 5.84375 8.50012 5.84375C9.96425 5.84375 11.1564 7.03481 11.1564 8.5C11.1564 9.96413 9.96425 11.1562 8.50012 11.1562Z" fill="#2B2B2B"/>
<path d="M13.0692 4.49755C13.382 4.49755 13.6356 4.244 13.6356 3.93124C13.6356 3.61848 13.382 3.36493 13.0692 3.36493C12.7565 3.36493 12.5029 3.61848 12.5029 3.93124C12.5029 4.244 12.7565 4.49755 13.0692 4.49755Z" fill="#2B2B2B"/>
</g>
<defs>
<clipPath id="clip0">
<rect width="17" height="17" fill="white" transform="translate(0.00012207)"/>
</clipPath>
</defs>
</svg>
