<svg width="122" height="52" viewBox="0 0 122 52" fill="none" xmlns="http://www.w3.org/2000/svg">
<path d="M26.93 0.0352542C26.682 0 26.3985 0 26.1505 0C11.7287 0 0 11.6692 0 26.0176C0 40.3661 11.7287 52 26.1505 52C40.5722 52 52.3009 40.3308 52.3009 26.0176C52.2655 11.9159 40.962 0.458305 26.93 0.0352542ZM26.1505 50.5898C12.5083 50.5898 1.41737 39.5553 1.41737 26.0176C1.41737 12.4447 12.5083 1.41017 26.1505 1.41017C39.7926 1.41017 50.8835 12.4447 50.8835 26.0176C50.8835 39.5553 39.7572 50.5898 26.1505 50.5898Z" fill="#2B2B2B"/>
<path d="M26.1497 2.32678C13.039 2.32678 2.33789 12.9383 2.33789 26.0176C2.33789 39.0617 13.0036 49.7085 26.1497 49.7085C39.2603 49.7085 49.9615 39.097 49.9615 26.0176C49.926 12.9383 39.2603 2.32678 26.1497 2.32678ZM18.425 11.6339C18.425 7.40339 21.8976 3.94848 26.1497 3.94848C31.89 3.94848 36.5319 8.63729 36.5319 14.419C36.5319 14.8773 36.4965 15.3003 36.4256 15.7586C35.6461 21.1525 27.5316 20.4827 27.5316 15.0183C27.5316 14.2427 26.9292 13.6434 26.1497 13.6434C25.3701 13.6434 24.7677 14.2427 24.7677 15.0183V24.6075H18.425V11.6339ZM3.96786 26.0176C3.96786 24.96 4.03873 23.9376 4.18047 22.9153C6.09392 25.101 8.64518 26.5817 11.5154 27.1105L5.49154 33.9498C4.49938 31.482 3.96786 28.8027 3.96786 26.0176ZM12.9682 43.7153C11.2673 42.4461 9.74364 40.9654 8.46801 39.3085C7.36955 37.8631 7.44042 35.8888 8.64518 34.5139L12.9682 29.6136V43.7153ZM12.9682 24.5722C11.4799 24.4312 10.0625 23.9376 8.82235 23.1973C6.12935 21.6109 5.20806 18.1207 6.6963 15.4061C8.2554 12.5858 10.3815 10.1532 12.9682 8.24949V24.5722ZM26.1497 48.0515C26.1142 48.0515 26.0788 48.0515 26.0788 48.0515C21.8267 48.0515 18.4605 44.5261 18.4605 40.2956V27.3925H24.8741C25.5827 33.9146 31.1813 39.097 37.9493 39.097H43.9377C39.8982 44.5261 33.4491 48.0515 26.1497 48.0515ZM37.9138 36.3471C32.6341 36.3471 28.2757 32.3634 27.6379 27.2868C34.1578 26.5464 39.2249 21.082 39.2958 14.419C39.2958 11.5281 38.3745 8.84882 36.7799 6.66305C40.0753 8.46102 42.8746 11.1051 44.8944 14.278H42.0951C42.2723 15.6176 42.9809 16.8163 44.0794 17.6271C46.3118 19.2488 47.8354 21.7166 48.2606 24.537C48.2961 25.0305 48.2961 25.4888 48.2961 25.9824C48.2961 26.0529 48.2961 26.1234 48.2961 26.1939C48.2252 31.8346 43.5479 36.3471 37.9138 36.3471Z" fill="#2B2B2B"/>
<path d="M75.0852 33.5207C75.0852 33.9437 75.2269 34.2963 75.5104 34.5431C75.7939 34.7898 76.2191 34.9309 76.8215 34.9309H77.5656V35.1776H69.8764V34.9309H70.6205C71.7898 34.9309 72.3568 34.4373 72.3568 33.4502V26.8576H69.9118C69.2031 27.0339 68.7425 27.4922 68.459 28.1973C68.211 28.9376 68.0338 29.8542 67.9275 30.9824C67.8921 31.8285 67.7858 32.5336 67.644 33.0624C67.5023 33.6265 67.2897 34.0495 67.0416 34.3668C66.7936 34.6841 66.4747 34.9309 66.1204 35.0366C65.766 35.1776 65.3408 35.2481 64.8802 35.2481C64.3841 35.2481 63.9943 35.1424 63.6754 34.9309C63.3565 34.7193 63.1439 34.4373 63.0376 34.0848C62.8958 33.7322 62.8604 33.3444 62.8958 32.8861C62.9313 32.4278 63.0376 31.9695 63.2147 31.4759C63.321 31.4054 63.4274 31.3702 63.5337 31.3702C63.64 31.3702 63.7463 31.4407 63.8171 31.5112C63.5337 31.899 63.3565 32.2868 63.2502 32.6746C63.1439 33.0624 63.1439 33.3797 63.1793 33.6617C63.2147 33.9437 63.3211 34.1905 63.4628 34.3668C63.6045 34.5431 63.8171 34.6488 64.0297 34.6488C64.3132 34.6488 64.4904 34.5431 64.5967 34.3668C64.703 34.1905 64.7738 33.9437 64.8093 33.5912C64.8447 33.2739 64.8447 32.8509 64.8447 32.3926C64.8447 31.9342 64.8802 31.4054 64.951 30.8414C64.9865 30.3478 65.0928 29.8542 65.2699 29.3959C65.4117 28.9024 65.6243 28.4793 65.9077 28.0915C66.1558 27.7037 66.4747 27.3512 66.8645 27.1044C67.2188 26.8224 67.6795 26.6461 68.1755 26.5756V26.5051C67.6795 26.4698 67.2188 26.3288 66.7582 26.1526C66.2975 25.941 65.9077 25.6942 65.518 25.377C65.1636 25.0597 64.8447 24.6366 64.6321 24.1783C64.4195 23.6848 64.3132 23.1559 64.3132 22.5214C64.3132 20.9349 64.8093 19.7363 65.8369 18.9607C66.8645 18.1851 68.4944 17.7973 70.7622 17.7973C71.4709 17.7973 72.1796 17.8326 72.9237 17.8678C73.6678 17.9031 74.3057 17.9383 74.8017 17.9383H77.5656V18.1851H76.8215C75.6522 18.1851 75.0852 18.6787 75.0852 19.6658V33.5207V33.5207ZM72.3568 18.2909C71.719 18.1146 71.152 18.0088 70.7268 18.0088C69.7346 18.0088 68.9905 18.1498 68.5299 18.4671C68.0338 18.7844 67.7149 19.137 67.5377 19.5953C67.3606 20.0536 67.2897 20.5471 67.3251 21.1112C67.3605 21.6753 67.3606 22.1688 67.3606 22.6624C67.3606 23.2264 67.396 23.7553 67.4314 24.2488C67.4669 24.7424 67.6086 25.1302 67.8212 25.4827C68.0338 25.8353 68.3527 26.082 68.7779 26.2936C69.2031 26.5051 69.8055 26.5756 70.5496 26.5756C70.904 26.5756 71.2583 26.5403 71.5418 26.5051C71.8607 26.4698 72.1087 26.3641 72.3568 26.1878V18.2909ZM81.9949 19.6305C81.9949 18.6434 81.4279 18.1498 80.2586 18.1498H79.5145V17.9031H82.2784C82.8099 17.9031 83.4477 17.8678 84.1564 17.8326C84.9005 17.7973 85.6092 17.762 86.3179 17.762C87.5581 17.762 88.6211 17.8678 89.5069 18.0793C90.3574 18.2909 91.066 18.6081 91.5621 19.0312C92.0936 19.4542 92.448 19.9831 92.6606 20.5824C92.8732 21.217 92.9795 21.922 92.9795 22.6976C92.9795 24.3898 92.4125 25.7648 91.2786 26.7519C90.1447 27.739 88.4793 28.2678 86.3179 28.2678C86.0698 28.2678 85.8218 28.2678 85.5029 28.2326C85.184 28.2326 84.9359 28.1973 84.6879 28.162V33.3797C84.6879 34.3668 85.2548 34.8603 86.4242 34.8603H87.1683V35.1071H79.479V34.8603H80.2232C80.8255 34.8603 81.2862 34.7193 81.5342 34.4726C81.8177 34.2258 81.9594 33.8732 81.9594 33.4502V19.6305H81.9949ZM84.7233 27.5627C84.9005 27.739 85.2194 27.8448 85.6092 27.9505C86.0344 28.0563 86.4242 28.0915 86.7785 28.0915C87.558 28.0915 88.1604 27.9505 88.5856 27.7037C89.0109 27.457 89.3298 27.0692 89.5424 26.6109C89.755 26.1526 89.8613 25.5885 89.8967 24.9892C89.9321 24.3546 89.9676 23.6848 89.9676 22.9444C89.9676 22.4509 89.9676 21.922 89.9676 21.358C89.9676 20.7939 89.8613 20.2651 89.6487 19.7715C89.4361 19.278 89.0817 18.8902 88.5856 18.5376C88.0896 18.2203 87.3454 18.0441 86.3887 18.0441C86.1407 18.0441 85.8926 18.0441 85.6446 18.0793C85.3611 18.0793 85.0777 18.1498 84.7587 18.2203V27.5627H84.7233ZM102.122 32.2515L95.9914 20.1241C95.8142 19.7715 95.6371 19.4895 95.5308 19.2075C95.389 18.9607 95.2473 18.7492 95.1055 18.6081C94.9638 18.4671 94.7866 18.3261 94.574 18.2556C94.3614 18.1851 94.1134 18.1498 93.7945 18.1498H93.511V17.9031H101.2V18.1498H100.456C99.8537 18.1498 99.3931 18.3261 99.1096 18.6787C98.8261 19.0312 98.8261 19.4895 99.145 20.0888L103.255 28.4793H103.362L105.7 20.7939C105.948 19.9831 105.948 19.3485 105.736 18.8549C105.523 18.3614 105.098 18.1498 104.496 18.1498H103.751V17.9031H108.819V18.1498H108.571C107.968 18.1498 107.437 18.4319 106.976 19.0312C106.515 19.6305 106.126 20.4414 105.807 21.4637L102.405 32.2515C102.192 32.9214 101.98 33.4502 101.732 33.838C101.484 34.261 101.236 34.5783 100.952 34.7898C100.704 35.0366 100.421 35.1776 100.173 35.2481C99.9246 35.3187 99.712 35.3892 99.5348 35.3892C99.2868 35.3892 99.0387 35.3539 98.7553 35.2481C98.5072 35.1424 98.2592 35.0366 98.0466 34.8251C97.834 34.6488 97.6568 34.4373 97.5151 34.1553C97.3733 33.9085 97.3025 33.5912 97.3025 33.2387C97.3025 32.8156 97.3733 32.4631 97.5505 32.1458C97.6922 31.8637 97.9048 31.617 98.1529 31.4759C98.4009 31.3349 98.6844 31.2644 98.9679 31.2644C99.2513 31.2644 99.5703 31.4054 99.8183 31.617L99.8537 31.7932C99.7474 32.04 99.712 32.322 99.712 32.5688C99.712 32.8156 99.7474 33.0271 99.8183 33.2387C99.8892 33.4502 99.9955 33.5912 100.137 33.697C100.279 33.8027 100.421 33.8732 100.633 33.8732C100.81 33.8732 100.988 33.8027 101.236 33.6617C101.484 33.5207 101.661 33.2387 101.767 32.8509L102.122 32.2515ZM116.685 17.6563C117.394 17.6563 117.996 17.6915 118.528 17.762C119.059 17.8326 119.555 17.8678 119.945 17.8678C120.335 17.8678 120.689 17.8326 120.973 17.762C121.256 17.6563 121.469 17.48 121.61 17.1627L121.788 17.2685C121.681 17.6915 121.575 18.1851 121.539 18.7492C121.469 19.3132 121.433 19.8773 121.398 20.5119C121.362 21.1112 121.327 21.781 121.327 22.4156C121.327 23.0854 121.291 23.72 121.291 24.3546H121.114C120.973 22.0631 120.547 20.4414 119.803 19.419C119.059 18.4319 118.031 17.9031 116.685 17.9031C115.905 17.9031 115.268 18.0441 114.772 18.3261C114.275 18.6081 113.886 18.9607 113.567 19.419C113.283 19.8773 113.071 20.3709 112.964 20.9702C112.823 21.5342 112.752 22.1336 112.716 22.7681C112.681 23.3675 112.681 24.002 112.681 24.6014C112.716 25.2007 112.716 25.7295 112.716 26.2231C112.716 26.7519 112.716 27.3512 112.681 27.9858C112.645 28.6203 112.645 29.2902 112.681 29.96C112.716 30.6298 112.787 31.2644 112.894 31.899C113.035 32.5336 113.212 33.0976 113.531 33.5912C113.815 34.0848 114.24 34.4726 114.736 34.7546C115.232 35.0366 115.905 35.2129 116.72 35.2129C117.465 35.2129 118.102 34.9661 118.634 34.5078C119.165 34.0495 119.591 33.4502 119.98 32.7098C120.335 31.9695 120.618 31.1939 120.831 30.3126C121.043 29.4312 121.185 28.6203 121.256 27.8095H121.433C121.433 28.4441 121.433 29.1492 121.433 29.8895C121.433 30.6298 121.469 31.3702 121.539 32.1105C121.575 32.8509 121.646 33.5207 121.717 34.12C121.788 34.7546 121.894 35.2481 122 35.6359L121.788 35.777C121.61 35.2834 121.291 34.9661 120.866 34.8603C120.441 34.7546 119.98 34.7546 119.484 34.8603C118.988 34.9661 118.457 35.0719 117.961 35.2481C117.465 35.4244 117.004 35.4949 116.685 35.4949C115.622 35.4949 114.665 35.2834 113.744 34.8603C112.858 34.4373 112.079 33.838 111.441 33.0271C110.803 32.2515 110.271 31.2997 109.917 30.1715C109.563 29.0434 109.386 27.8095 109.386 26.4346C109.386 25.1654 109.563 23.9668 109.917 22.9092C110.271 21.8515 110.803 20.9349 111.441 20.1593C112.079 19.3837 112.858 18.7844 113.744 18.3614C114.665 17.8678 115.622 17.6563 116.685 17.6563Z" fill="#2B2B2B"/>
</svg>
