<svg width="15" height="15" fill="none" xmlns="http://www.w3.org/2000/svg"><g clip-path="url(#clip0)" fill="#000"><path d="M13.66 1.608c.338 0 .63.112.878.331l-4.25 4.25-.294-.211a19.608 19.608 0 00-.774-.548 4.77 4.77 0 00-.791-.402 2.41 2.41 0 00-.92-.205h-.017a2.41 2.41 0 00-.921.205 4.63 4.63 0 00-.791.402c-.199.13-.456.313-.775.548-.088.065-.187.136-.293.212L.462 1.94c.248-.22.54-.332.877-.332h12.322zM.846 8.865c-.318.212-.6.455-.846.729V3.128l3.746 3.746c-.75.523-1.715 1.186-2.9 1.991zm13.317 0c-1.14-.771-2.11-1.436-2.907-1.993L15 3.128v6.466a4.618 4.618 0 00-.837-.729z"/><path d="M13.66 13.394H1.34c-.43 0-.76-.146-.992-.436C.116 12.668 0 12.305 0 11.87c0-.351.154-.732.46-1.143a4.17 4.17 0 01.98-.966c.19-.134.762-.532 1.716-1.193A553.537 553.537 0 005.35 7.04l.125-.089.231-.166c.181-.131.332-.237.452-.318a8.52 8.52 0 01.435-.272c.17-.1.331-.176.482-.226.15-.05.29-.076.418-.076h.017c.128 0 .268.026.418.076.151.05.311.125.482.226.17.1.315.191.435.272.12.08.27.187.452.318a55.69 55.69 0 00.356.255l.847.589 3.07 2.132c.408.284.748.628 1.021 1.03.274.401.41.822.41 1.263 0 .368-.132.684-.397.946-.265.262-.58.394-.942.394z"/></g><defs><clipPath id="clip0"><path fill="#fff" transform="matrix(1 0 0 -1 0 15)" d="M0 0h15v15H0z"/></clipPath></defs></svg>