<svg width="13" height="13" fill="none" xmlns="http://www.w3.org/2000/svg"><g clip-path="url(#clip0)"><path d="M12.708 10.274l-2.007-2.008c-.4-.398-1.062-.386-1.476.028l-1.012 1.01c-.064-.034-.13-.071-.2-.11-.638-.354-1.512-.84-2.432-1.76-.923-.922-1.408-1.798-1.763-2.437l-.11-.195.68-.678.333-.334c.415-.414.426-1.076.027-1.476L2.741.306c-.4-.399-1.062-.387-1.476.028L.699.903l.015.015a3.25 3.25 0 00-.466.823 3.41 3.41 0 00-.207.834C-.224 4.772.78 6.78 3.505 9.507c3.768 3.767 6.804 3.482 6.935 3.468a3.392 3.392 0 001.656-.674l.012.01.574-.56c.413-.415.425-1.077.026-1.477z" fill="#000"/></g><defs><clipPath id="clip0"><path fill="#fff" d="M0 0h13v13H0z"/></clipPath></defs></svg>