<svg width="66" height="60" fill="none" xmlns="http://www.w3.org/2000/svg"><circle cx="51.5" cy="38.5" r="14.5" fill="#B38144" fill-opacity=".35"/><g clip-path="url(#clip0)" fill="#B38144"><path d="M42.695 15.646l-1.345-5.379c-.106-.414-.3-.8-.569-1.131l5.051-7.581A1 1 0 0045 0h-9.67a1 1 0 00-.832.445L30 7.197 25.502.445A1 1 0 0024.67 0H15a1 1 0 00-.832 1.555l5.047 7.575c-.268.334-.46.722-.565 1.138l-1.345 5.378a24 24 0 1025.39 0zM35.865 2h7.267l-4.055 6.087A2.987 2.987 0 0038.44 8h-6.572l3.997-6zm-11.73 0l3.998 6H21.56c-.216.003-.431.03-.641.08L16.868 2h7.267zm-3.545 8.752a.97.97 0 01.47-.624c.154-.082.326-.126.5-.128h16.88a1 1 0 01.97.752l.894 3.576a23.96 23.96 0 00-20.608 0l.894-3.576zM30 58C17.85 58 8 48.15 8 36s9.85-22 22-22 22 9.85 22 22c-.014 12.145-9.855 21.986-22 22z"/><path d="M36.265 53.039a20.543 20.543 0 01-2.426-.862 12.602 12.602 0 001.595-1.89 1 1 0 00-1.65-1.13 11.14 11.14 0 01-2.37 2.483 1 1 0 00.155 1.678 22.511 22.511 0 004.146 1.644 1 1 0 10.55-1.923zm5.727-2.972c-.804.03-1.61.004-2.41-.081a13.15 13.15 0 00.606-2.334 1 1 0 10-1.975-.32 11.13 11.13 0 01-.953 3.025 1 1 0 00.72 1.415 18.587 18.587 0 004.088.294 1 1 0 00-.076-1.999zm3.854-4.545c-.71.28-1.442.506-2.187.676a14.692 14.692 0 00-.302-2.419 1 1 0 00-1.957.413c.218 1.041.306 2.105.26 3.167a1 1 0 001.143 1.031 16.96 16.96 0 003.775-1.007 1 1 0 10-.731-1.861zm2.042-5.514a15.63 15.63 0 01-1.821 1.334 15.673 15.673 0 00-1.06-2.181 1 1 0 00-1.725 1.012 14 14 0 011.285 2.927 1 1 0 001.414.591 17.113 17.113 0 003.202-2.158 1 1 0 00-1.295-1.525zm.261-5.904a16.382 16.382 0 01-1.337 1.864 15.444 15.444 0 00-1.65-1.715 1 1 0 00-1.328 1.495 13.803 13.803 0 012.098 2.362 1 1 0 001.533.12 17.92 17.92 0 002.386-3.076 1 1 0 00-1.702-1.05zm-5.631-4.047a1 1 0 00.528 1.312 13.14 13.14 0 012.696 1.562 1 1 0 001.494-.358 18 18 0 001.341-3.694 1 1 0 10-1.942-.477 16.327 16.327 0 01-.716 2.225 14.784 14.784 0 00-2.089-1.098 1 1 0 00-1.312.528zm-1.622-2.582c1.051.077 2.09.28 3.093.605a1 1 0 001.297-.816c.178-1.31.2-2.636.062-3.95a1 1 0 10-1.989.204c.08.773.099 1.552.056 2.327a14.86 14.86 0 00-2.379-.365 1 1 0 00-.14 1.995zM26.215 49.157a1 1 0 00-1.65 1.13 12.65 12.65 0 001.597 1.89 20.4 20.4 0 01-2.427.862 1 1 0 10.55 1.922 22.537 22.537 0 004.146-1.643 1 1 0 00.155-1.678 11.141 11.141 0 01-2.37-2.483zm-4.428-1.825a1 1 0 10-1.974.32c.129.794.332 1.576.606 2.333-.8.085-1.607.113-2.411.081a1 1 0 00-.076 2 18.587 18.587 0 004.088-.294 1 1 0 00.72-1.416 11.132 11.132 0 01-.953-3.024zM17.34 48.4a1 1 0 001-1.041 12.819 12.819 0 01.26-3.167 1 1 0 10-1.957-.413 14.703 14.703 0 00-.302 2.419 15.257 15.257 0 01-2.187-.676 1 1 0 10-.732 1.86c1.216.481 2.483.819 3.776 1.008.047.007.095.01.142.01zm-2.862-4.597a1 1 0 00.955-.703 13.974 13.974 0 011.285-2.927 1 1 0 00-1.725-1.012 15.65 15.65 0 00-1.06 2.18 15.414 15.414 0 01-1.82-1.333 1 1 0 10-1.295 1.524 17.108 17.108 0 003.2 2.159 1 1 0 00.46.112zm-1.226-5.27c.025 0 .052 0 .078-.003a1 1 0 00.739-.42 13.801 13.801 0 012.098-2.362 1 1 0 00-1.328-1.495 15.435 15.435 0 00-1.65 1.716 16.37 16.37 0 01-1.338-1.865 1 1 0 10-1.702 1.05 17.924 17.924 0 002.386 3.077 1 1 0 00.717.302zm-.488-5.96a1.002 1.002 0 001.494.358 13.134 13.134 0 012.696-1.562 1 1 0 00-.784-1.84c-.724.31-1.423.677-2.089 1.098a16.313 16.313 0 01-.716-2.225 1 1 0 10-1.942.477 17.99 17.99 0 001.34 3.694zm2.408-4.599a1 1 0 00.839.106 13.135 13.135 0 013.094-.605 1 1 0 10-.141-1.995c-.801.057-1.597.18-2.379.365a14.727 14.727 0 01.056-2.327 1 1 0 10-1.99-.205 16.577 16.577 0 00.063 3.95c.04.294.207.554.458.711z"/></g><defs><clipPath id="clip0"><path fill="#fff" d="M0 0h60v60H0z"/></clipPath></defs></svg>