<svg width="66" height="60" fill="none" xmlns="http://www.w3.org/2000/svg"><circle cx="51.5" cy="38.5" r="14.5" fill="#B38144" fill-opacity=".35"/><g clip-path="url(#clip0)" fill="#B38144"><path d="M37.435 16.614c.163-.232.293-.486.385-.754a2.91 2.91 0 011.15.46 4.4 4.4 0 002.351.752c.265 0 .53-.025.79-.072a4.2 4.2 0 002.72-1.713 2.29 2.29 0 013.33-.587 4.2 4.2 0 003.144.679l-.348-1.97a2.288 2.288 0 01-1.794-.441 4.256 4.256 0 00-5.863 1.034 2.29 2.29 0 01-1.536 1.028 1.98 1.98 0 01-.873-.021 3.976 3.976 0 001.6-.85 4.2 4.2 0 001.5-2.843 2.286 2.286 0 01.817-1.658 2.253 2.253 0 011.774-.516 4.113 4.113 0 003.06-.984l-1.288-1.531a2.388 2.388 0 01-1.774.515 4.257 4.257 0 00-4.561 3.827 2.288 2.288 0 01-2.588 2.173 4.445 4.445 0 00-1.84.246 3 3 0 00-1.162-1.134L40.9 3.322a1.001 1.001 0 00-.9-1.447 2.58 2.58 0 01-1.872-.78 4.61 4.61 0 00-6.248 0 2.642 2.642 0 01-3.75 0 4.617 4.617 0 00-6.253 0 2.59 2.59 0 01-1.877.78 1 1 0 00-.895 1.447l4.466 8.932a2.968 2.968 0 00-1.006 4.36A21.017 21.017 0 007 36.874v18.001a5.006 5.006 0 005 5h36a5.006 5.006 0 005-5v-18a21.018 21.018 0 00-15.565-20.261zM23.126 2.656a2.645 2.645 0 013.754 0 4.616 4.616 0 006.25 0 2.638 2.638 0 013.748 0 5.313 5.313 0 001.623.98l-4.119 8.239h-8.764L21.5 3.638a5.342 5.342 0 001.626-.982zM25 15.875a1 1 0 110-2h10a1 1 0 010 2H25zm26 39a3 3 0 01-3 3H12a3 3 0 01-3-3v-18c.011-10.489 8.511-18.988 19-19h4c10.489.012 18.989 8.511 19 19v18z"/><path d="M23.293 44.168l12-12 1.414 1.414-12 12-1.415-1.414zM34 39.875a3 3 0 100 6 3 3 0 000-6zm0 4a1 1 0 110-2 1 1 0 010 2zm-8-6a3 3 0 100-6 3 3 0 000 6zm0-4a1 1 0 110 2 1 1 0 010-2z"/><path d="M30 24.875c-7.732 0-14 6.268-14 14s6.268 14 14 14 14-6.268 14-14c-.008-7.729-6.271-13.992-14-14zm0 26c-6.627 0-12-5.373-12-12 0-6.628 5.373-12 12-12s12 5.372 12 12c-.007 6.624-5.376 11.992-12 12z"/></g><defs><clipPath id="clip0"><path fill="#fff" d="M0 0h60v60H0z"/></clipPath></defs></svg>