<svg width="68" height="60" fill="none" xmlns="http://www.w3.org/2000/svg"><path d="M58.125 8.438h-4.688V5.624a.938.938 0 00-.937-.938h-45a.937.937 0 00-.938.938v2.813H1.875a.937.937 0 00-.938.937v7.5a22.279 22.279 0 007.032 16.42l.468 20.164a.938.938 0 00.938.916h41.25a.937.937 0 00.938-.916l.468-20.164a22.277 22.277 0 007.032-16.42v-7.5a.938.938 0 00-.938-.938zm-7.953 24.15A27.02 27.02 0 0137.5 38.6v-1.1a.938.938 0 00-.938-.938H23.438a.938.938 0 00-.938.938v1.1a27.02 27.02 0 01-12.672-6.013l-.431-18.525h41.206l-.43 18.526zm-14.547 5.85v3.75h-11.25v-3.75h11.25zM8.437 6.561h43.126v5.625H8.437V6.564zM2.812 16.876v-6.563h3.75v2.813a.937.937 0 00.938.938h.022l.385 16.585a20.963 20.963 0 01-5.095-13.773zM49.71 52.5H10.291l-.409-17.553c3.722 2.8 8.04 4.7 12.618 5.553v2.625a.937.937 0 00.938.938h13.125a.938.938 0 00.937-.938V40.5a30.187 30.187 0 0012.618-5.55l-.409 17.55zm7.478-35.625a20.964 20.964 0 01-5.094 13.773l.385-16.585h.022a.938.938 0 00.938-.938v-2.813h3.75v6.563z" fill="#B38144"/><path d="M21.563 48.75h-8.438a.938.938 0 000 1.875h8.438a.938.938 0 000-1.875zm4.687 0h-1.875a.938.938 0 000 1.875h1.875a.938.938 0 000-1.875z" fill="#B38144"/><circle cx="53.5" cy="38.5" r="14.5" fill="#B38144" fill-opacity=".35"/></svg>